<svg xmlns="http://www.w3.org/2000/svg" width="10.578" height="9.175" viewBox="0 0 10.578 9.175"><defs><style>.a{fill:#fff;stroke:#fff;stroke-width:0.2px;}</style></defs><g transform="translate(-1095.282 -2211.965)"><g transform="translate(1095.426 2212.065)"><path class="a" d="M4.932,4.043,1.073.184a.628.628,0,0,0-.889.889L3.6,4.488.184,7.9a.629.629,0,0,0,.889.889L4.932,4.932a.628.628,0,0,0,0-.889Z" transform="translate(0 0)"/></g><g transform="translate(1100.643 2212.065)"><path class="a" d="M4.932,4.043,1.073.184a.628.628,0,0,0-.889.889L3.6,4.488.184,7.9a.629.629,0,0,0,.889.889L4.932,4.932a.628.628,0,0,0,0-.889Z" transform="translate(0 0)"/></g></g></svg>