<svg xmlns="http://www.w3.org/2000/svg" width="24.933" height="14.521" viewBox="0 0 24.933 14.521"><defs><style>.a{fill:#fff;stroke:#397dff;stroke-width:0.5px;}</style></defs><g transform="translate(-670.503 -660.951)"><g transform="translate(670.871 661.201)"><path class="a" d="M12.1,111.161a1.676,1.676,0,0,1-1.2-.5L.5,100.081a1.743,1.743,0,0,1,0-2.436,1.675,1.675,0,0,1,2.4,0L12.1,107l9.206-9.358a1.675,1.675,0,0,1,2.4,0,1.742,1.742,0,0,1,0,2.436L13.3,110.657A1.676,1.676,0,0,1,12.1,111.161Z" transform="translate(-0.001 -97.14)"/></g></g></svg>