<svg xmlns="http://www.w3.org/2000/svg" width="15.786" height="18.753" viewBox="0 0 15.786 18.753"><defs><style>.a{fill:#3472de;}</style></defs><path class="a" d="M5.86,18.753h7a2.933,2.933,0,0,0,2.93-2.93V5.9a2.933,2.933,0,0,0-2.93-2.93h-7A2.933,2.933,0,0,0,2.93,5.9v9.926A2.933,2.933,0,0,0,5.86,18.753Zm7-14.321A1.467,1.467,0,0,1,14.321,5.9v9.926a1.467,1.467,0,0,1-1.465,1.465h-7A1.467,1.467,0,0,1,4.4,15.823V5.9A1.467,1.467,0,0,1,5.86,4.432ZM0,13.991V2.93A2.933,2.933,0,0,1,2.93,0h8.131a.733.733,0,1,1,0,1.465H2.93A1.467,1.467,0,0,0,1.465,2.93V13.991a.733.733,0,0,1-1.465,0Zm0,0"/></svg>