<svg xmlns="http://www.w3.org/2000/svg" xmlns:xlink="http://www.w3.org/1999/xlink" width="96" height="96" viewBox="0 0 96 96"><defs><style>.a{opacity:0.2;}.a,.c{fill:url(#a);}.b{fill:url(#b);}.d,.e{fill:#1f273c;}.e,.f,.g{stroke:#1f273c;}.f,.g,.j{fill:none;}.f{stroke-linecap:round;}.g,.h{stroke-width:1.5px;}.h{fill:rgba(255,255,255,0.8);stroke:#fff;}.i{stroke:none;}</style><linearGradient id="a" x1="0.5" x2="0.5" y2="1" gradientUnits="objectBoundingBox"><stop offset="0" stop-color="#5690ff"/><stop offset="0.369" stop-color="#8bb3ff"/><stop offset="1" stop-color="#5690ff"/></linearGradient><linearGradient id="b" x1="0.5" x2="0.5" y2="1" gradientUnits="objectBoundingBox"><stop offset="0" stop-color="#5690ff"/><stop offset="1" stop-color="#387dff"/></linearGradient></defs><g transform="translate(-914 -1097)"><g transform="translate(905.99 1088.989)"><circle class="a" cx="48" cy="48" r="48" transform="translate(8.01 8.011)"/></g><circle class="b" cx="45" cy="45" r="45" transform="translate(917 1100)"/><g transform="translate(916.931 1099.93)"><circle class="c" cx="45" cy="45" r="45" transform="translate(0.069 0.069)"/></g><g transform="translate(561 83)"><g transform="translate(379.64 957.234)"><g transform="translate(0 90.998)"><g transform="translate(0 0)"><path class="d" d="M42.484,104.036C42.1,103.5,33.012,91,21.443,91S.616,103.5.235,104.036a1.248,1.248,0,0,0,0,1.457c.381.533,9.638,13.038,21.208,13.038s20.659-12.505,21.04-13.038A1.248,1.248,0,0,0,42.484,104.036Zm-21.04,9.489a8.762,8.762,0,1,1,0-17.521,8.761,8.761,0,0,1,0,17.521Z" transform="translate(0 -90.998)"/></g></g><g transform="translate(17.522 101.01)"><g transform="translate(0 0)"><path class="d" d="M213.927,211a3.758,3.758,0,1,0,0,7.509,3.755,3.755,0,0,0,0-7.509Z" transform="translate(-210.006 -210.999)"/></g></g></g><g transform="translate(-104.672 7.986)"><path class="d" d="M184.527,282.233l-.612.354a.66.66,0,1,0,.66,1.143l.612-.354a.66.66,0,0,0-.66-1.143Z" transform="translate(315.572 774.157)"/><path class="d" d="M307.482,211.189l-.612.354a.66.66,0,1,0,.66,1.143l.612-.354a.66.66,0,0,0-.66-1.143Z" transform="translate(203.438 838.948)"/><path class="d" d="M283.258,307.008a.66.66,0,0,0-1.144.66l.353.612a.66.66,0,0,0,1.143-.66Z" transform="translate(225.795 751.783)"/><path class="d" d="M212.27,183.955a.66.66,0,1,0-1.144.66l.353.612a.66.66,0,0,0,1.143-.66Z" transform="translate(290.535 864.006)"/><path class="d" d="M306.87,283.376l.612.354a.66.66,0,0,0,.66-1.143l-.612-.354a.66.66,0,0,0-.66,1.143Z" transform="translate(203.437 774.157)"/><path class="d" d="M185.187,211.542l-.612-.354a.66.66,0,0,0-.66,1.143l.612.354a.66.66,0,0,0,.66-1.143Z" transform="translate(315.572 838.949)"/><path class="d" d="M211.368,308.522a.66.66,0,0,0,.9-.242l.353-.612a.66.66,0,0,0-1.144-.66l-.353.612a.66.66,0,0,0,.242.9Z" transform="translate(290.535 751.783)"/><path class="d" d="M282.685,185.558a.66.66,0,0,0,.572-.33l.353-.612a.66.66,0,0,0-1.144-.66l-.353.612a.66.66,0,0,0,.571.99Z" transform="translate(225.795 864.006)"/><path class="d" d="M173.538,249.292a.66.66,0,0,0,.66.66h.707a.66.66,0,1,0,0-1.32H174.2A.66.66,0,0,0,173.538,249.292Z" transform="translate(324.734 804.72)"/><path class="d" d="M315.514,249.292a.66.66,0,0,0,.66.66h.707a.66.66,0,1,0,0-1.32h-.707A.66.66,0,0,0,315.514,249.292Z" transform="translate(195.253 804.72)"/><path class="d" d="M248.541,316.319v.707a.66.66,0,1,0,1.32,0v-.707a.66.66,0,1,0-1.32,0Z" transform="translate(256.332 743.592)"/><path class="d" d="M249.861,174.937v-.707a.66.66,0,1,0-1.32,0v.707a.66.66,0,1,0,1.32,0Z" transform="translate(256.332 873.176)"/></g><g transform="translate(-56.66 -3.234)"><path class="d" d="M307.639,220.714c.009-.376.015-.738.015-1.094a.66.66,0,1,0-1.32,0c0,.478-.013.977-.026,1.506q0,.141-.007.283c-.025,1.031-.022.43-.021,1.466,0,2.336.246,4.693,1.709,6.193a5.448,5.448,0,0,0,4.069,1.465h8.681a.66.66,0,1,0,0-1.32h-8.681a4.143,4.143,0,0,1-3.124-1.067c-1.246-1.278-1.362-3.633-1.329-5.914C307.621,221.146,307.619,221.59,307.639,220.714Z" transform="translate(160.62 861.039)"/><path class="d" d="M443.329,425.792h-5.2a.66.66,0,1,0,0,1.32h5.2a.66.66,0,1,0,0-1.32Z" transform="translate(36.031 661.23)"/></g><g transform="translate(374.423 1036.658)"><path class="d" d="M320.04,228.781c-.009.376-.015.738-.015,1.094a.66.66,0,1,0,1.32,0c0-.478.013-.977.026-1.506q0-.141.007-.283c.025-1.031.022-.43.021-1.466,0-2.336-.246-4.693-1.709-6.193a5.448,5.448,0,0,0-4.069-1.466h-8.681a.66.66,0,0,0,0,1.32h8.681a4.143,4.143,0,0,1,3.124,1.067c1.246,1.278,1.362,3.633,1.329,5.915C320.058,228.349,320.06,227.905,320.04,228.781Z" transform="translate(-306.279 -218.96)"/><path class="d" d="M438.13,427.112h5.2a.66.66,0,0,0,0-1.32h-5.2a.66.66,0,0,0,0,1.32Z" transform="translate(-435.47 -422.561)"/></g><g transform="translate(-5.081 -4.442)"><g transform="translate(411.529 1039.446)"><path class="d" d="M.122,8.106c.007.31.013.609.013.9a.545.545,0,0,1-.545.545.545.545,0,0,1-.545-.545c0-.394-.01-.807-.021-1.243q0-.116-.006-.234C-1,6.681-1,7.178-1,6.322-1,4.394-.8,2.448.412,1.21A4.5,4.5,0,0,1,3.77,0h6.515a.545.545,0,0,1,0,1.09H3.77a3.42,3.42,0,0,0-2.579.881C.163,3.026.067,4.97.094,6.853.107,7.75.105,7.384.122,8.106Z" transform="translate(0 0)"/></g><g class="e" transform="translate(421.5 1038)"><circle class="i" cx="2" cy="2" r="2"/><circle class="j" cx="2" cy="2" r="1.5"/></g></g><g class="e" transform="translate(369.037 1073.835) rotate(180)"><circle class="i" cx="2" cy="2" r="2"/><circle class="j" cx="2" cy="2" r="1.5"/></g><path class="f" d="M2429.359-9462l-3.935,3.834h-10.388" transform="translate(-2048 10530)"/><g transform="translate(420.844 1048.05)"><path class="f" d="M2415.037-9459.228l3.181-3.322h7.539" transform="translate(-2419.118 9464.55)"/></g><g transform="translate(6.5 3.978)"><g transform="translate(391.83 1086.554) rotate(180)"><path class="d" d="M1.122,8.106c.007.31.013.609.013.9a.545.545,0,1,1-1.09,0c0-.394-.01-.807-.021-1.243q0-.116-.006-.234C0,6.681,0,7.178,0,6.322,0,4.394.2,2.448,1.412,1.21A4.5,4.5,0,0,1,4.77,0h5.515a.545.545,0,0,1,0,1.09H4.77a3.42,3.42,0,0,0-2.579.881c-1.029,1.055-1.125,3-1.1,4.882C1.107,7.75,1.105,7.384,1.122,8.106Z" transform="translate(0 0)"/></g><path class="d" d="M9.877,8.8a1.177,1.177,0,0,1,1.105-.6.476.476,0,0,0,.476-.391,4.679,4.679,0,0,0,0-1.629.476.476,0,0,0-.476-.391,1.177,1.177,0,0,1-1.105-.6A1.191,1.191,0,0,1,9.92,3.94a.476.476,0,0,0-.1-.629,4.764,4.764,0,0,0-1.386-.805.476.476,0,0,0-.591.21,1.177,1.177,0,0,1-2.125,0,.476.476,0,0,0-.591-.229,4.765,4.765,0,0,0-1.386.824.476.476,0,0,0-.1.629A1.191,1.191,0,0,1,3.683,5.2a1.177,1.177,0,0,1-1.105.6.476.476,0,0,0-.476.391,4.679,4.679,0,0,0,0,1.629.476.476,0,0,0,.476.391,1.177,1.177,0,0,1,1.105.6,1.191,1.191,0,0,1-.043,1.263.476.476,0,0,0,.1.629,4.765,4.765,0,0,0,1.386.805.476.476,0,0,0,.591-.21,1.177,1.177,0,0,1,2.125,0,.476.476,0,0,0,.591.229,4.764,4.764,0,0,0,1.386-.805.476.476,0,0,0,.1-.629A1.191,1.191,0,0,1,9.877,8.8Zm-3.1.1A1.906,1.906,0,1,1,8.686,7,1.906,1.906,0,0,1,6.78,8.909Z" transform="translate(371.999 1079.044)"/></g><g transform="translate(-1.854 -0.5)"><g class="g" transform="translate(429.055 1047)"><rect class="i" width="6.945" height="6.945" rx="1"/><rect class="j" x="0.75" y="0.75" width="5.445" height="5.445" rx="0.25"/></g><g transform="translate(429.784 1052.841)"><rect class="d" width="0.905" height="2.159" rx="0.453"/><rect class="d" width="0.905" height="2.159" rx="0.453" transform="translate(2.264)"/><rect class="d" width="0.905" height="2.159" rx="0.453" transform="translate(4.527)"/></g><g transform="translate(429.784 1046)"><rect class="d" width="0.905" height="2.419" rx="0.453"/><rect class="d" width="0.905" height="2.419" rx="0.453" transform="translate(2.264)"/><rect class="d" width="0.905" height="2.419" rx="0.453" transform="translate(4.527)"/></g><g transform="translate(437 1047.783) rotate(90)"><rect class="d" width="0.905" height="2.219" rx="0.453"/><rect class="d" width="0.905" height="2.219" rx="0.453" transform="translate(2.264)"/><rect class="d" width="0.905" height="2.219" rx="0.453" transform="translate(4.527)"/></g><g transform="translate(429.989 1047.783) rotate(90)"><rect class="d" width="0.905" height="1.989" rx="0.453"/><rect class="d" width="0.905" height="1.989" rx="0.453" transform="translate(2.264)"/><rect class="d" width="0.905" height="1.989" rx="0.453" transform="translate(4.527)"/></g></g></g><g transform="translate(905.99 1088.989)"><circle class="a" cx="48" cy="48" r="48" transform="translate(8.01 8.011)"/></g><circle class="b" cx="45" cy="45" r="45" transform="translate(917 1100)"/><g transform="translate(916.931 1099.93)"><circle class="c" cx="45" cy="45" r="45" transform="translate(0.069 0.069)"/></g><g transform="translate(893.828 1113.587)"><path class="h" d="M80.6,22.332a17.42,17.42,0,1,1-24.636,0L66.829,11.469l1.358-1.552V1.77L51.7,18.258a23.181,23.181,0,1,0,33.346.369Z" transform="translate(0)"/><circle class="h" cx="3.104" cy="3.104" r="3.104" transform="translate(73.424 10.887)"/></g></g></svg>