<svg xmlns="http://www.w3.org/2000/svg" xmlns:xlink="http://www.w3.org/1999/xlink" width="96" height="96" viewBox="0 0 96 96"><defs><style>.a{opacity:0.2;}.a,.c{fill:url(#a);}.b{fill:url(#b);}.d{fill:rgba(255,255,255,0.8);}.d,.e{stroke:#fff;stroke-width:1.5px;}.e{fill:rgba(255,255,255,0.75);}.f{opacity:0.75;}.g{fill:#fff;}</style><linearGradient id="a" x1="0.5" x2="0.5" y2="1" gradientUnits="objectBoundingBox"><stop offset="0" stop-color="#5690ff"/><stop offset="0.369" stop-color="#8bb3ff"/><stop offset="1" stop-color="#5690ff"/></linearGradient><linearGradient id="b" x1="0.5" x2="0.5" y2="1" gradientUnits="objectBoundingBox"><stop offset="0" stop-color="#5690ff"/><stop offset="1" stop-color="#387dff"/></linearGradient></defs><g transform="translate(-356 -1097)"><g transform="translate(347.99 1088.989)"><circle class="a" cx="48" cy="48" r="48" transform="translate(8.01 8.011)"/></g><circle class="b" cx="45" cy="45" r="45" transform="translate(359 1100)"/><g transform="translate(358.931 1099.93)"><circle class="c" cx="45" cy="45" r="45" transform="translate(0.069 0.069)"/></g><g transform="translate(372.709 1033.833)"><g transform="translate(0 90.998)"><g transform="translate(0 0)"><path class="d" d="M62.237,110.1C61.678,109.318,48.362,91,31.414,91S.9,109.318.344,110.1a1.828,1.828,0,0,0,0,2.134c.559.781,14.12,19.1,31.069,19.1s30.265-18.32,30.823-19.1A1.828,1.828,0,0,0,62.237,110.1ZM31.414,124a12.836,12.836,0,1,1,0-25.668,12.834,12.834,0,0,1,0,25.668Z" transform="translate(0 -90.998)"/></g></g><g transform="translate(25.669 105.665)"><g transform="translate(0 0)"><path class="e" d="M215.751,211a5.505,5.505,0,1,0,0,11,5.5,5.5,0,0,0,0-11Z" transform="translate(-210.006 -210.999)"/></g></g></g><g class="f" transform="translate(-105.058 87.598)"><path class="g" d="M184.966,282.274l-.9.518a.968.968,0,1,0,.968,1.676l.9-.518a.968.968,0,0,0-.968-1.676Z" transform="translate(315.984 778.613)"/><path class="g" d="M307.921,211.231l-.9.518a.968.968,0,1,0,.968,1.676l.9-.519a.968.968,0,0,0-.968-1.676Z" transform="translate(208.896 840.488)"/><path class="g" d="M283.832,307.162a.968.968,0,0,0-1.677.967l.518.9a.968.968,0,0,0,1.677-.967Z" transform="translate(230.247 757.245)"/><path class="g" d="M212.844,184.109a.968.968,0,1,0-1.677.967l.518.9a.968.968,0,0,0,1.677-.967Z" transform="translate(292.074 864.418)"/><path class="g" d="M307.024,283.95l.9.518a.968.968,0,0,0,.968-1.676l-.9-.518a.968.968,0,0,0-.968,1.676Z" transform="translate(208.895 778.612)"/><path class="g" d="M185.934,211.749l-.9-.518a.968.968,0,0,0-.968,1.676l.9.519a.968.968,0,0,0,.968-1.676Z" transform="translate(315.984 840.49)"/><path class="g" d="M211.522,309.382a.967.967,0,0,0,1.322-.355l.518-.9a.968.968,0,0,0-1.677-.967l-.518.9a.968.968,0,0,0,.355,1.322Z" transform="translate(292.074 757.246)"/><path class="g" d="M282.992,186.459a.968.968,0,0,0,.839-.484l.518-.9a.968.968,0,0,0-1.677-.967l-.518.9a.968.968,0,0,0,.838,1.452Z" transform="translate(230.247 864.419)"/><path class="g" d="M173.538,249.6a.968.968,0,0,0,.968.968h1.036a.968.968,0,1,0,0-1.936h-1.036A.968.968,0,0,0,173.538,249.6Z" transform="translate(324.734 807.8)"/><path class="g" d="M315.514,249.6a.968.968,0,0,0,.968.968h1.036a.968.968,0,1,0,0-1.936h-1.036A.968.968,0,0,0,315.514,249.6Z" transform="translate(201.079 807.8)"/><path class="g" d="M248.541,316.627v1.037a.968.968,0,1,0,1.936,0v-1.037a.968.968,0,0,0-1.936,0Z" transform="translate(259.41 749.422)"/><path class="g" d="M250.477,175.575v-1.037a.968.968,0,1,0-1.936,0v1.037a.968.968,0,1,0,1.936,0Z" transform="translate(259.41 873.176)"/></g></g></svg>