<svg xmlns="http://www.w3.org/2000/svg" xmlns:xlink="http://www.w3.org/1999/xlink" width="96" height="96" viewBox="0 0 96 96"><defs><style>.a{opacity:0.2;}.a,.c{fill:url(#a);}.b{fill:url(#b);}.d{fill:rgba(255,255,255,0.8);stroke:#fff;stroke-width:1.2px;}</style><linearGradient id="a" x1="0.5" x2="0.5" y2="1" gradientUnits="objectBoundingBox"><stop offset="0" stop-color="#5690ff"/><stop offset="0.369" stop-color="#8bb3ff"/><stop offset="1" stop-color="#5690ff"/></linearGradient><linearGradient id="b" x1="0.5" x2="0.5" y2="1" gradientUnits="objectBoundingBox"><stop offset="0" stop-color="#5690ff"/><stop offset="1" stop-color="#387dff"/></linearGradient></defs><g transform="translate(-542 -1097)"><g transform="translate(533.99 1088.989)"><circle class="a" cx="48" cy="48" r="48" transform="translate(8.01 8.011)"/></g><circle class="b" cx="45" cy="45" r="45" transform="translate(545 1100)"/><circle class="c" cx="45" cy="45" r="45" transform="translate(545 1099.999)"/><g transform="translate(566.719 1122.728)"><path class="d" d="M22.272,3.712V0A10.744,10.744,0,0,0,11.695,8.829L9.587,20.416H4.64v3.712H8.913L6.926,35.052A7.035,7.035,0,0,1,0,40.832v3.712a10.744,10.744,0,0,0,10.577-8.829l2.108-11.587H16.7V20.416H13.36L15.347,9.493A7.035,7.035,0,0,1,22.272,3.712Zm0,0"/><path class="d" d="M172.246,87.418,170.887,86.4c-.118.157-2.887,3.934-2.887,11.21s2.769,11.053,2.887,11.21l2.717-2.038c-.021-.029-2.207-3.113-2.207-9.171s2.193-9.151,2.215-9.183Zm0,0" transform="translate(-146.387 -75.336)"/><path class="d" d="M331.136,88.437c.022.029,2.208,3.113,2.208,9.171s-2.194,9.151-2.216,9.183L332.5,107.8l1.359,1.019c.119-.158,2.887-3.934,2.887-11.21s-2.77-11.053-2.887-11.21Zm0,0" transform="translate(-287.284 -75.336)"/><path class="d" d="M234.487,142.586l-2.211,3.041-2.211-3.041-3,2.184,2.918,4.012-2.918,4.012,3,2.184,2.211-3.041,2.211,3.041,3-2.184-2.918-4.012,2.918-4.012Zm0,0" transform="translate(-196.704 -126.413)"/></g></g></svg>