<svg xmlns="http://www.w3.org/2000/svg" width="24.265" height="23.254" viewBox="0 0 24.265 23.254"><defs><style>.a{fill:#fff;}</style></defs><path class="a" d="M12.132.5A12.027,12.027,0,0,0,0,12.422,11.942,11.942,0,0,0,8.3,23.733c.607.112.829-.257.829-.573,0-.283-.01-1.033-.015-2.027-3.375.719-4.087-1.6-4.087-1.6a3.178,3.178,0,0,0-1.35-1.744c-1.1-.739.085-.724.085-.724a2.538,2.538,0,0,1,1.858,1.228,2.612,2.612,0,0,0,3.534.992,2.524,2.524,0,0,1,.768-1.594c-2.694-.3-5.526-1.323-5.526-5.891A4.555,4.555,0,0,1,5.641,8.6a4.171,4.171,0,0,1,.106-3.155s1.016-.319,3.336,1.222a11.632,11.632,0,0,1,6.066,0c2.305-1.542,3.321-1.222,3.321-1.222A4.286,4.286,0,0,1,18.592,8.6a4.573,4.573,0,0,1,1.244,3.2c0,4.58-2.836,5.588-5.535,5.881a2.829,2.829,0,0,1,.819,2.206c0,1.6-.015,2.877-.015,3.265,0,.312.212.685.834.566a11.906,11.906,0,0,0,8.327-11.3A12.029,12.029,0,0,0,12.132.5Z" transform="translate(0 -0.5)"/></svg>