<svg xmlns="http://www.w3.org/2000/svg" width="137.836" height="30.231" viewBox="0 0 137.836 30.231"><defs><style>.a{isolation:isolate;}.b{fill:#3980f5;}.c{fill:#30c730;}.d{fill:#f01616;}</style></defs><g transform="translate(-197.934 -187.158)"><g transform="translate(232.805 187.158)"><g class="a"><g class="a"><path d="M361.322,202.915q.789-.856,1.632-1.784t1.632-1.838q.789-.91,1.488-1.731t1.2-1.428h6.361q-1.9,2.186-3.716,4.174t-3.967,4.1a24.722,24.722,0,0,1,2.226,2.32q1.148,1.349,2.226,2.787t1.975,2.877q.9,1.438,1.508,2.625h-6.151q-.574-.936-1.308-2.069t-1.559-2.267q-.824-1.133-1.738-2.177a14.63,14.63,0,0,0-1.81-1.764v8.277h-5.349v-27l5.349-.862Z" transform="translate(-355.973 -187.158)"/><path d="M458.818,235.466a12.281,12.281,0,0,1-.646,4.075,8.859,8.859,0,0,1-1.867,3.159,8.4,8.4,0,0,1-2.926,2.028,9.77,9.77,0,0,1-3.823.718,9.672,9.672,0,0,1-3.788-.718,8.389,8.389,0,0,1-2.926-2.028,9.275,9.275,0,0,1-1.9-3.159,11.686,11.686,0,0,1-.682-4.075,11.277,11.277,0,0,1,.7-4.057,9.2,9.2,0,0,1,1.939-3.124,8.708,8.708,0,0,1,2.944-2.01,9.478,9.478,0,0,1,3.716-.718,9.575,9.575,0,0,1,3.752.718,8.527,8.527,0,0,1,2.926,2.01,9.132,9.132,0,0,1,1.9,3.124A11.553,11.553,0,0,1,458.818,235.466Zm-5.457,0a6.727,6.727,0,0,0-.987-3.9,3.229,3.229,0,0,0-2.818-1.418,3.274,3.274,0,0,0-2.836,1.418,6.633,6.633,0,0,0-1.005,3.9,6.806,6.806,0,0,0,1.005,3.932,3.249,3.249,0,0,0,2.836,1.454,3.2,3.2,0,0,0,2.818-1.454A6.9,6.9,0,0,0,453.361,235.466Z" transform="translate(-421.66 -217.084)"/><path d="M554.469,231.18q-.719-.179-1.687-.377a10.476,10.476,0,0,0-2.083-.2,9.741,9.741,0,0,0-1.2.09,7.1,7.1,0,0,0-1.059.2v14.433h-5.349V227.446a32.236,32.236,0,0,1,3.393-.951,19.558,19.558,0,0,1,4.362-.449q.431,0,1.041.054t1.221.144q.61.09,1.221.215a5.771,5.771,0,0,1,1.041.305Z" transform="translate(-501.801 -217.465)"/><path d="M611.751,226.96a29.883,29.883,0,0,1,3.518-.736,28.922,28.922,0,0,1,4.524-.341,11.023,11.023,0,0,1,4,.628,6.021,6.021,0,0,1,2.531,1.777,6.934,6.934,0,0,1,1.329,2.729,14.543,14.543,0,0,1,.395,3.518V245.2H622.7V235.182a7.213,7.213,0,0,0-.682-3.662,2.783,2.783,0,0,0-2.549-1.077q-.574,0-1.22.054t-1.149.126V245.2h-5.349Z" transform="translate(-555.314 -217.338)"/><path d="M711.535,191.944a2.935,2.935,0,0,1-.951,2.316,3.406,3.406,0,0,1-4.488,0,3.294,3.294,0,0,1,0-4.631,3.406,3.406,0,0,1,4.488,0A2.937,2.937,0,0,1,711.535,191.944Zm-.5,24.342h-5.349V197.4h5.349Z" transform="translate(-628.101 -188.426)"/><path d="M756.954,225.557a12.391,12.391,0,0,1,3.949.539,6.14,6.14,0,0,1,2.531,1.544,5.69,5.69,0,0,1,1.346,2.441,12.059,12.059,0,0,1,.395,3.2v11.129q-1.15.252-3.2.592a30.719,30.719,0,0,1-4.954.341,15.693,15.693,0,0,1-3.321-.323,7.2,7.2,0,0,1-2.567-1.059,4.841,4.841,0,0,1-1.651-1.921,6.624,6.624,0,0,1-.574-2.908,5.51,5.51,0,0,1,.664-2.8,5.112,5.112,0,0,1,1.777-1.831,8.04,8.04,0,0,1,2.549-.987,14.31,14.31,0,0,1,2.98-.305,17.04,17.04,0,0,1,1.849.09,8.357,8.357,0,0,1,1.31.233v-.5a2.963,2.963,0,0,0-.826-2.19,4,4,0,0,0-2.872-.826,18.359,18.359,0,0,0-2.693.2,11.6,11.6,0,0,0-2.3.556l-.682-4.308q.466-.143,1.167-.305t1.526-.287q.826-.126,1.741-.216T756.954,225.557Zm.431,15.653q.789,0,1.508-.036a10.308,10.308,0,0,0,1.149-.108V237.01q-.323-.071-.969-.143a10.783,10.783,0,0,0-1.185-.072,10.638,10.638,0,0,0-1.418.09,3.713,3.713,0,0,0-1.167.341,2,2,0,0,0-.79.682,1.9,1.9,0,0,0-.287,1.077,1.834,1.834,0,0,0,.844,1.741A4.662,4.662,0,0,0,757.385,241.21Z" transform="translate(-662.21 -217.084)"/></g></g></g><g transform="translate(197.934 187.962)"><path d="M223.758,198.157,210.846,190.8l-12.912,7.357v14.715l12.912,7.356,12.912-7.356Z" transform="translate(-197.934 -190.8)"/><g transform="translate(3.44 3.771)"><path class="b" d="M261.638,251.9v-9.588l8.328-4.795v9.588Z" transform="translate(-251.021 -230.98)"/><path class="c" d="M213.523,237.518v9.588l8.328,4.795v-9.588Z" transform="translate(-213.523 -230.98)"/><path class="d" d="M217.789,212.649l8.44,4.759,8.44-4.759-8.44-4.76Z" transform="translate(-216.848 -207.889)"/></g></g></g></svg>