<svg xmlns="http://www.w3.org/2000/svg" width="49" height="49" viewBox="0 0 49 49"><defs><style>.a,.b{fill:#fff;}.a{opacity:0.5;}</style></defs><g transform="translate(-1073 -3585)"><rect class="a" width="49" height="49" rx="24.5" transform="translate(1073 3585)"/><g transform="translate(1085.944 3599.508)"><g transform="translate(0 0)"><path class="b" d="M24.11,50.319a10.305,10.305,0,0,1-2.848.781,4.915,4.915,0,0,0,2.174-2.732,9.878,9.878,0,0,1-3.134,1.2,4.942,4.942,0,0,0-8.55,3.38,5.089,5.089,0,0,0,.115,1.127A13.991,13.991,0,0,1,1.679,48.9,4.944,4.944,0,0,0,3.2,55.507,4.881,4.881,0,0,1,.964,54.9v.054a4.966,4.966,0,0,0,3.96,4.857,4.933,4.933,0,0,1-1.3.163,4.37,4.37,0,0,1-.936-.084,4.99,4.99,0,0,0,4.619,3.443,9.932,9.932,0,0,1-6.128,2.108A9.26,9.26,0,0,1,0,65.371a13.915,13.915,0,0,0,7.583,2.218A13.971,13.971,0,0,0,21.651,53.524c0-.219-.008-.429-.018-.639A9.861,9.861,0,0,0,24.11,50.319Z" transform="translate(0 -48)"/></g></g></g></svg>